<svg width="1080" height="535" viewBox="0 0 1080 535" fill="none" xmlns="http://www.w3.org/2000/svg">
<rect width="1080" height="535" fill="white"/>
<path d="M344.304 210.784H349.296V228H344.304V210.784ZM346.8 208.384C345.883 208.384 345.136 208.117 344.56 207.584C343.984 207.051 343.696 206.389 343.696 205.6C343.696 204.811 343.984 204.149 344.56 203.616C345.136 203.083 345.883 202.816 346.8 202.816C347.717 202.816 348.464 203.072 349.04 203.584C349.616 204.096 349.904 204.736 349.904 205.504C349.904 206.336 349.616 207.029 349.04 207.584C348.464 208.117 347.717 208.384 346.8 208.384ZM364.393 210.528C366.526 210.528 368.244 211.168 369.545 212.448C370.868 213.728 371.529 215.627 371.529 218.144V228H366.537V218.912C366.537 217.547 366.238 216.533 365.641 215.872C365.044 215.189 364.18 214.848 363.049 214.848C361.79 214.848 360.788 215.243 360.041 216.032C359.294 216.8 358.921 217.952 358.921 219.488V228H353.929V210.784H358.697V212.8C359.358 212.075 360.18 211.52 361.161 211.136C362.142 210.731 363.22 210.528 364.393 210.528ZM387.158 227.168C386.667 227.531 386.059 227.808 385.334 228C384.63 228.171 383.883 228.256 383.094 228.256C381.046 228.256 379.457 227.733 378.326 226.688C377.217 225.643 376.662 224.107 376.662 222.08V215.008H374.006V211.168H376.662V206.976H381.654V211.168H385.942V215.008H381.654V222.016C381.654 222.741 381.835 223.307 382.198 223.712C382.582 224.096 383.115 224.288 383.798 224.288C384.587 224.288 385.259 224.075 385.814 223.648L387.158 227.168ZM385.322 291.056C385.919 290.224 386.719 289.595 387.722 289.168C388.746 288.741 389.919 288.528 391.242 288.528V293.136C390.687 293.093 390.314 293.072 390.122 293.072C388.693 293.072 387.573 293.477 386.762 294.288C385.951 295.077 385.546 296.272 385.546 297.872V306H380.554V288.784H385.322V291.056ZM410.918 297.456C410.918 297.52 410.886 297.968 410.822 298.8H397.798C398.033 299.867 398.587 300.709 399.462 301.328C400.337 301.947 401.425 302.256 402.726 302.256C403.622 302.256 404.411 302.128 405.094 301.872C405.798 301.595 406.449 301.168 407.046 300.592L409.702 303.472C408.081 305.328 405.713 306.256 402.598 306.256C400.657 306.256 398.939 305.883 397.446 305.136C395.953 304.368 394.801 303.312 393.99 301.968C393.179 300.624 392.774 299.099 392.774 297.392C392.774 295.707 393.169 294.192 393.958 292.848C394.769 291.483 395.867 290.427 397.254 289.68C398.662 288.912 400.23 288.528 401.958 288.528C403.643 288.528 405.169 288.891 406.534 289.616C407.899 290.341 408.966 291.387 409.734 292.752C410.523 294.096 410.918 295.664 410.918 297.456ZM401.99 292.304C400.859 292.304 399.91 292.624 399.142 293.264C398.374 293.904 397.905 294.779 397.734 295.888H406.214C406.043 294.8 405.574 293.936 404.806 293.296C404.038 292.635 403.099 292.304 401.99 292.304ZM425.346 305.168C424.855 305.531 424.247 305.808 423.522 306C422.818 306.171 422.071 306.256 421.282 306.256C419.234 306.256 417.644 305.733 416.514 304.688C415.404 303.643 414.85 302.107 414.85 300.08V293.008H412.194V289.168H414.85V284.976H419.842V289.168H424.13V293.008H419.842V300.016C419.842 300.741 420.023 301.307 420.385 301.712C420.77 302.096 421.303 302.288 421.986 302.288C422.775 302.288 423.447 302.075 424.002 301.648L425.346 305.168ZM445.492 288.784V306H440.756V303.952C440.094 304.699 439.305 305.275 438.388 305.68C437.47 306.064 436.478 306.256 435.412 306.256C433.15 306.256 431.358 305.605 430.036 304.304C428.713 303.003 428.052 301.072 428.052 298.512V288.784H433.044V297.776C433.044 300.549 434.206 301.936 436.532 301.936C437.726 301.936 438.686 301.552 439.412 300.784C440.137 299.995 440.5 298.832 440.5 297.296V288.784H445.492ZM454.885 291.056C455.482 290.224 456.282 289.595 457.285 289.168C458.309 288.741 459.482 288.528 460.805 288.528V293.136C460.25 293.093 459.877 293.072 459.685 293.072C458.255 293.072 457.135 293.477 456.325 294.288C455.514 295.077 455.109 296.272 455.109 297.872V306H450.117V288.784H454.885V291.056ZM474.237 288.528C476.37 288.528 478.087 289.168 479.389 290.448C480.711 291.728 481.373 293.627 481.373 296.144V306H476.381V296.912C476.381 295.547 476.082 294.533 475.485 293.872C474.887 293.189 474.023 292.848 472.893 292.848C471.634 292.848 470.631 293.243 469.885 294.032C469.138 294.8 468.765 295.952 468.765 297.488V306H463.773V288.784H468.541V290.8C469.202 290.075 470.023 289.52 471.005 289.136C471.986 288.731 473.063 288.528 474.237 288.528Z" fill="#1B75B6"/>
<path d="M421.071 210.528C423.225 210.528 424.932 211.168 426.191 212.448C427.471 213.707 428.111 215.605 428.111 218.144V228H423.119V218.912C423.119 217.547 422.831 216.533 422.255 215.872C421.7 215.189 420.9 214.848 419.855 214.848C418.681 214.848 417.753 215.232 417.071 216C416.388 216.747 416.047 217.867 416.047 219.36V228H411.055V218.912C411.055 216.203 409.967 214.848 407.791 214.848C406.639 214.848 405.721 215.232 405.039 216C404.356 216.747 404.015 217.867 404.015 219.36V228H399.023V210.784H403.791V212.768C404.431 212.043 405.209 211.488 406.127 211.104C407.065 210.72 408.089 210.528 409.199 210.528C410.415 210.528 411.513 210.773 412.495 211.264C413.476 211.733 414.265 212.427 414.863 213.344C415.567 212.448 416.452 211.755 417.519 211.264C418.607 210.773 419.791 210.528 421.071 210.528ZM439.529 210.528C442.196 210.528 444.244 211.168 445.673 212.448C447.103 213.707 447.817 215.616 447.817 218.176V228H443.145V225.856C442.207 227.456 440.457 228.256 437.897 228.256C436.575 228.256 435.423 228.032 434.441 227.584C433.481 227.136 432.745 226.517 432.233 225.728C431.721 224.939 431.465 224.043 431.465 223.04C431.465 221.44 432.063 220.181 433.257 219.264C434.473 218.347 436.34 217.888 438.857 217.888H442.825C442.825 216.8 442.495 215.968 441.833 215.392C441.172 214.795 440.18 214.496 438.857 214.496C437.94 214.496 437.033 214.645 436.137 214.944C435.263 215.221 434.516 215.605 433.897 216.096L432.105 212.608C433.044 211.947 434.164 211.435 435.465 211.072C436.788 210.709 438.143 210.528 439.529 210.528ZM439.145 224.896C439.999 224.896 440.756 224.704 441.417 224.32C442.079 223.915 442.548 223.328 442.825 222.56V220.8H439.401C437.353 220.8 436.329 221.472 436.329 222.816C436.329 223.456 436.575 223.968 437.065 224.352C437.577 224.715 438.271 224.896 439.145 224.896ZM452.335 210.784H457.327V228H452.335V210.784ZM454.831 208.384C453.914 208.384 453.167 208.117 452.591 207.584C452.015 207.051 451.727 206.389 451.727 205.6C451.727 204.811 452.015 204.149 452.591 203.616C453.167 203.083 453.914 202.816 454.831 202.816C455.749 202.816 456.495 203.072 457.071 203.584C457.647 204.096 457.935 204.736 457.935 205.504C457.935 206.336 457.647 207.029 457.071 207.584C456.495 208.117 455.749 208.384 454.831 208.384ZM472.424 210.528C474.558 210.528 476.275 211.168 477.576 212.448C478.899 213.728 479.56 215.627 479.56 218.144V228H474.568V218.912C474.568 217.547 474.27 216.533 473.672 215.872C473.075 215.189 472.211 214.848 471.08 214.848C469.822 214.848 468.819 215.243 468.072 216.032C467.326 216.8 466.952 217.952 466.952 219.488V228H461.96V210.784H466.728V212.8C467.39 212.075 468.211 211.52 469.192 211.136C470.174 210.731 471.251 210.528 472.424 210.528ZM488.117 234.208C486.837 232.267 485.845 230.016 485.141 227.456C484.459 224.896 484.117 222.155 484.117 219.232C484.117 216.309 484.459 213.568 485.141 211.008C485.845 208.427 486.837 206.176 488.117 204.256H492.885C491.541 206.624 490.56 209.035 489.941 211.488C489.323 213.92 489.013 216.501 489.013 219.232C489.013 221.963 489.323 224.555 489.941 227.008C490.56 229.44 491.541 231.84 492.885 234.208H488.117ZM493.539 234.208C494.883 231.84 495.864 229.44 496.483 227.008C497.123 224.555 497.443 221.963 497.443 219.232C497.443 216.501 497.123 213.92 496.483 211.488C495.864 209.035 494.883 206.624 493.539 204.256H498.307C499.608 206.155 500.6 208.395 501.283 210.976C501.987 213.536 502.339 216.288 502.339 219.232C502.339 222.176 501.997 224.928 501.315 227.488C500.632 230.027 499.629 232.267 498.307 234.208H493.539ZM513.808 215.648C513.808 216.736 513.637 217.547 513.296 218.08C512.954 218.613 512.41 218.997 511.664 219.232C512.41 219.467 512.954 219.851 513.296 220.384C513.637 220.917 513.808 221.728 513.808 222.816V227.936C513.808 228.704 514 229.291 514.384 229.696C514.789 230.101 515.376 230.304 516.144 230.304H516.72V234.208H514.864C512.88 234.208 511.376 233.717 510.352 232.736C509.328 231.755 508.816 230.336 508.816 228.48V222.688C508.816 222.197 508.688 221.824 508.432 221.568C508.197 221.312 507.856 221.184 507.408 221.184H506.352V217.28H507.408C507.856 217.28 508.197 217.152 508.432 216.896C508.688 216.64 508.816 216.267 508.816 215.776V209.984C508.816 208.128 509.328 206.709 510.352 205.728C511.376 204.747 512.88 204.256 514.864 204.256H516.72V208.16H516.144C515.376 208.16 514.789 208.363 514.384 208.768C514 209.173 513.808 209.76 513.808 210.528V215.648ZM390.73 249.528C392.33 249.528 393.781 249.901 395.082 250.648C396.405 251.373 397.439 252.408 398.186 253.752C398.933 255.075 399.306 256.621 399.306 258.392C399.306 260.163 398.933 261.72 398.186 263.064C397.439 264.387 396.405 265.421 395.082 266.168C393.781 266.893 392.33 267.256 390.73 267.256C388.533 267.256 386.805 266.563 385.546 265.176V273.208H380.554V249.784H385.322V251.768C386.559 250.275 388.362 249.528 390.73 249.528ZM389.866 263.16C391.146 263.16 392.191 262.733 393.002 261.88C393.834 261.005 394.25 259.843 394.25 258.392C394.25 256.941 393.834 255.789 393.002 254.936C392.191 254.061 391.146 253.624 389.866 253.624C388.586 253.624 387.53 254.061 386.698 254.936C385.887 255.789 385.482 256.941 385.482 258.392C385.482 259.843 385.887 261.005 386.698 261.88C387.53 262.733 388.586 263.16 389.866 263.16ZM407.416 252.056C408.013 251.224 408.813 250.595 409.816 250.168C410.84 249.741 412.013 249.528 413.336 249.528V254.136C412.781 254.093 412.408 254.072 412.216 254.072C410.786 254.072 409.666 254.477 408.856 255.288C408.045 256.077 407.64 257.272 407.64 258.872V267H402.648V249.784H407.416V252.056ZM416.304 249.784H421.296V267H416.304V249.784ZM418.8 247.384C417.883 247.384 417.136 247.117 416.56 246.584C415.984 246.051 415.696 245.389 415.696 244.6C415.696 243.811 415.984 243.149 416.56 242.616C417.136 242.083 417.883 241.816 418.8 241.816C419.717 241.816 420.464 242.072 421.04 242.584C421.616 243.096 421.904 243.736 421.904 244.504C421.904 245.336 421.616 246.029 421.04 246.584C420.464 247.117 419.717 247.384 418.8 247.384ZM436.393 249.528C438.526 249.528 440.244 250.168 441.545 251.448C442.868 252.728 443.529 254.627 443.529 257.144V267H438.537V257.912C438.537 256.547 438.238 255.533 437.641 254.872C437.044 254.189 436.18 253.848 435.049 253.848C433.79 253.848 432.788 254.243 432.041 255.032C431.294 255.8 430.921 256.952 430.921 258.488V267H425.929V249.784H430.697V251.8C431.358 251.075 432.18 250.52 433.161 250.136C434.142 249.731 435.22 249.528 436.393 249.528ZM459.158 266.168C458.667 266.531 458.059 266.808 457.334 267C456.63 267.171 455.883 267.256 455.094 267.256C453.046 267.256 451.457 266.733 450.326 265.688C449.217 264.643 448.662 263.107 448.662 261.08V254.008H446.006V250.168H448.662V245.976H453.654V250.168H457.942V254.008H453.654V261.016C453.654 261.741 453.835 262.307 454.198 262.712C454.582 263.096 455.115 263.288 455.798 263.288C456.587 263.288 457.259 263.075 457.814 262.648L459.158 266.168ZM467.432 250.168H471.848V254.008H467.56V267H462.568V254.008H459.912V250.168H462.568V249.4C462.568 247.437 463.144 245.88 464.296 244.728C465.47 243.576 467.112 243 469.224 243C469.971 243 470.675 243.085 471.336 243.256C472.019 243.405 472.584 243.629 473.032 243.928L471.72 247.544C471.144 247.139 470.472 246.936 469.704 246.936C468.19 246.936 467.432 247.768 467.432 249.432V250.168ZM478.367 273.208C477.087 271.267 476.095 269.016 475.391 266.456C474.709 263.896 474.367 261.155 474.367 258.232C474.367 255.309 474.709 252.568 475.391 250.008C476.095 247.427 477.087 245.176 478.367 243.256H483.135C481.791 245.624 480.81 248.035 480.191 250.488C479.573 252.92 479.263 255.501 479.263 258.232C479.263 260.963 479.573 263.555 480.191 266.008C480.81 268.44 481.791 270.84 483.135 273.208H478.367ZM708.914 273.208C710.258 270.84 711.239 268.44 711.858 266.008C712.498 263.555 712.818 260.963 712.818 258.232C712.818 255.501 712.498 252.92 711.858 250.488C711.239 248.035 710.258 245.624 708.914 243.256H713.682C714.983 245.155 715.975 247.395 716.658 249.976C717.362 252.536 717.714 255.288 717.714 258.232C717.714 261.176 717.372 263.928 716.69 266.488C716.007 269.027 715.004 271.267 713.682 273.208H708.914ZM724.255 255.768C723.38 255.768 722.644 255.469 722.047 254.872C721.449 254.275 721.151 253.528 721.151 252.632C721.151 251.715 721.449 250.979 722.047 250.424C722.644 249.848 723.38 249.56 724.255 249.56C725.129 249.56 725.865 249.848 726.463 250.424C727.06 250.979 727.359 251.715 727.359 252.632C727.359 253.528 727.06 254.275 726.463 254.872C725.865 255.469 725.129 255.768 724.255 255.768ZM724.286 261.048C725.183 261.048 725.919 261.336 726.495 261.912C727.071 262.467 727.359 263.203 727.359 264.12C727.359 264.547 727.305 264.973 727.199 265.4C727.092 265.827 726.857 266.467 726.495 267.32L724.671 271.928H721.503L722.911 266.84C722.377 266.627 721.951 266.285 721.631 265.816C721.332 265.325 721.183 264.76 721.183 264.12C721.183 263.203 721.471 262.467 722.047 261.912C722.644 261.336 723.391 261.048 724.286 261.048ZM503.504 306.384C501.648 306.384 499.995 305.925 498.544 305.008C497.094 304.091 495.952 302.768 495.12 301.04C494.31 299.291 493.904 297.211 493.904 294.8C493.904 292.389 494.31 290.32 495.12 288.592C495.952 286.843 497.094 285.509 498.544 284.592C499.995 283.675 501.648 283.216 503.504 283.216C505.36 283.216 507.014 283.675 508.464 284.592C509.915 285.509 511.046 286.843 511.856 288.592C512.688 290.32 513.104 292.389 513.104 294.8C513.104 297.211 512.688 299.291 511.856 301.04C511.046 302.768 509.915 304.091 508.464 305.008C507.014 305.925 505.36 306.384 503.504 306.384ZM503.504 302C504.87 302 505.936 301.413 506.704 300.24C507.494 299.067 507.888 297.253 507.888 294.8C507.888 292.347 507.494 290.533 506.704 289.36C505.936 288.187 504.87 287.6 503.504 287.6C502.16 287.6 501.094 288.187 500.304 289.36C499.536 290.533 499.152 292.347 499.152 294.8C499.152 297.253 499.536 299.067 500.304 300.24C501.094 301.413 502.16 302 503.504 302ZM518.567 294.768C517.692 294.768 516.956 294.469 516.359 293.872C515.762 293.275 515.463 292.528 515.463 291.632C515.463 290.715 515.762 289.979 516.359 289.424C516.956 288.848 517.692 288.56 518.567 288.56C519.442 288.56 520.178 288.848 520.775 289.424C521.372 289.979 521.671 290.715 521.671 291.632C521.671 292.528 521.372 293.275 520.775 293.872C520.178 294.469 519.442 294.768 518.567 294.768ZM518.599 300.048C519.495 300.048 520.231 300.336 520.807 300.912C521.383 301.467 521.671 302.203 521.671 303.12C521.671 303.547 521.618 303.973 521.511 304.4C521.404 304.827 521.17 305.467 520.807 306.32L518.983 310.928H515.815L517.223 305.84C516.69 305.627 516.263 305.285 515.943 304.816C515.644 304.325 515.495 303.76 515.495 303.12C515.495 302.203 515.783 301.467 516.359 300.912C516.956 300.336 517.703 300.048 518.599 300.048ZM352.848 334.28V338.184H351.792C351.344 338.184 350.992 338.312 350.736 338.568C350.501 338.824 350.384 339.197 350.384 339.688V345.48C350.384 347.336 349.872 348.755 348.848 349.736C347.824 350.717 346.32 351.208 344.336 351.208H342.48V347.304H343.056C343.824 347.304 344.4 347.101 344.784 346.696C345.189 346.291 345.392 345.704 345.392 344.936V339.816C345.392 338.728 345.563 337.917 345.904 337.384C346.245 336.851 346.789 336.467 347.536 336.232C346.789 335.997 346.245 335.613 345.904 335.08C345.563 334.547 345.392 333.736 345.392 332.648V327.528C345.392 326.76 345.189 326.173 344.784 325.768C344.4 325.363 343.824 325.16 343.056 325.16H342.48V321.256H344.336C346.32 321.256 347.824 321.747 348.848 322.728C349.872 323.709 350.384 325.128 350.384 326.984V332.776C350.384 333.267 350.501 333.64 350.736 333.896C350.992 334.152 351.344 334.28 351.792 334.28H352.848Z" fill="black"/>
<path d="M485.037 244.6H489.293L488.941 253.688H485.357L485.037 244.6ZM491.629 244.6H495.885L495.533 253.688H491.949L491.629 244.6ZM520.638 244.6V267H515.454V257.816H505.278V267H500.094V244.6H505.278V253.432H515.454V244.6H520.638ZM542.449 258.456C542.449 258.52 542.417 258.968 542.353 259.8H529.329C529.564 260.867 530.119 261.709 530.993 262.328C531.868 262.947 532.956 263.256 534.257 263.256C535.153 263.256 535.943 263.128 536.625 262.872C537.329 262.595 537.98 262.168 538.577 261.592L541.233 264.472C539.612 266.328 537.244 267.256 534.129 267.256C532.188 267.256 530.471 266.883 528.977 266.136C527.484 265.368 526.332 264.312 525.521 262.968C524.711 261.624 524.305 260.099 524.305 258.392C524.305 256.707 524.7 255.192 525.489 253.848C526.3 252.483 527.399 251.427 528.785 250.68C530.193 249.912 531.761 249.528 533.489 249.528C535.175 249.528 536.7 249.891 538.065 250.616C539.431 251.341 540.497 252.387 541.265 253.752C542.055 255.096 542.449 256.664 542.449 258.456ZM533.521 253.304C532.391 253.304 531.441 253.624 530.673 254.264C529.905 254.904 529.436 255.779 529.265 256.888H537.745C537.575 255.8 537.105 254.936 536.337 254.296C535.569 253.635 534.631 253.304 533.521 253.304ZM545.773 243.256H550.765V267H545.773V243.256ZM555.398 243.256H560.39V267H555.398V243.256ZM573.215 267.256C571.401 267.256 569.769 266.883 568.319 266.136C566.889 265.368 565.769 264.312 564.959 262.968C564.148 261.624 563.743 260.099 563.743 258.392C563.743 256.685 564.148 255.16 564.959 253.816C565.769 252.472 566.889 251.427 568.319 250.68C569.769 249.912 571.401 249.528 573.215 249.528C575.028 249.528 576.649 249.912 578.079 250.68C579.508 251.427 580.628 252.472 581.439 253.816C582.249 255.16 582.655 256.685 582.655 258.392C582.655 260.099 582.249 261.624 581.439 262.968C580.628 264.312 579.508 265.368 578.079 266.136C576.649 266.883 575.028 267.256 573.215 267.256ZM573.215 263.16C574.495 263.16 575.54 262.733 576.351 261.88C577.183 261.005 577.599 259.843 577.599 258.392C577.599 256.941 577.183 255.789 576.351 254.936C575.54 254.061 574.495 253.624 573.215 253.624C571.935 253.624 570.879 254.061 570.047 254.936C569.215 255.789 568.799 256.941 568.799 258.392C568.799 259.843 569.215 261.005 570.047 261.88C570.879 262.733 571.935 263.16 573.215 263.16ZM629.262 244.6L621.934 267H616.366L611.438 251.832L606.35 267H600.814L593.454 244.6H598.83L603.886 260.344L609.166 244.6H613.966L619.086 260.472L624.302 244.6H629.262ZM638.715 267.256C636.901 267.256 635.269 266.883 633.819 266.136C632.389 265.368 631.269 264.312 630.459 262.968C629.648 261.624 629.243 260.099 629.243 258.392C629.243 256.685 629.648 255.16 630.459 253.816C631.269 252.472 632.389 251.427 633.819 250.68C635.269 249.912 636.901 249.528 638.715 249.528C640.528 249.528 642.149 249.912 643.579 250.68C645.008 251.427 646.128 252.472 646.939 253.816C647.749 255.16 648.155 256.685 648.155 258.392C648.155 260.099 647.749 261.624 646.939 262.968C646.128 264.312 645.008 265.368 643.579 266.136C642.149 266.883 640.528 267.256 638.715 267.256ZM638.715 263.16C639.995 263.16 641.04 262.733 641.851 261.88C642.683 261.005 643.099 259.843 643.099 258.392C643.099 256.941 642.683 255.789 641.851 254.936C641.04 254.061 639.995 253.624 638.715 253.624C637.435 253.624 636.379 254.061 635.547 254.936C634.715 255.789 634.299 256.941 634.299 258.392C634.299 259.843 634.715 261.005 635.547 261.88C636.379 262.733 637.435 263.16 638.715 263.16ZM656.26 252.056C656.857 251.224 657.657 250.595 658.66 250.168C659.684 249.741 660.857 249.528 662.18 249.528V254.136C661.625 254.093 661.252 254.072 661.06 254.072C659.63 254.072 658.51 254.477 657.7 255.288C656.889 256.077 656.484 257.272 656.484 258.872V267H651.492V249.784H656.26V252.056ZM665.148 243.256H670.14V267H665.148V243.256ZM692.309 243.256V267H687.541V265.016C686.303 266.509 684.511 267.256 682.165 267.256C680.543 267.256 679.071 266.893 677.749 266.168C676.447 265.443 675.423 264.408 674.677 263.064C673.93 261.72 673.557 260.163 673.557 258.392C673.557 256.621 673.93 255.064 674.677 253.72C675.423 252.376 676.447 251.341 677.749 250.616C679.071 249.891 680.543 249.528 682.165 249.528C684.362 249.528 686.079 250.221 687.317 251.608V243.256H692.309ZM683.029 263.16C684.287 263.16 685.333 262.733 686.165 261.88C686.997 261.005 687.413 259.843 687.413 258.392C687.413 256.941 686.997 255.789 686.165 254.936C685.333 254.061 684.287 253.624 683.029 253.624C681.749 253.624 680.693 254.061 679.861 254.936C679.029 255.789 678.613 256.941 678.613 258.392C678.613 259.843 679.029 261.005 679.861 261.88C680.693 262.733 681.749 263.16 683.029 263.16ZM696.193 244.6H700.449L700.097 253.688H696.513L696.193 244.6ZM702.785 244.6H707.041L706.689 253.688H703.105L702.785 244.6Z" fill="#6C6C6C"/>
</svg>
