<svg width="2652" height="1080" viewBox="0 0 2652 1080" fill="none" xmlns="http://www.w3.org/2000/svg">
<rect width="2652" height="1080" fill="white"/>
<path d="M349.749 491.2L316.773 592H291.717L269.541 523.744L246.645 592H221.733L188.613 491.2H212.805L235.557 562.048L259.317 491.2H280.917L303.957 562.624L327.429 491.2H349.749ZM392.287 593.152C384.127 593.152 376.783 591.472 370.255 588.112C363.823 584.656 358.783 579.904 355.135 573.856C351.487 567.808 349.663 560.944 349.663 553.264C349.663 545.584 351.487 538.72 355.135 532.672C358.783 526.624 363.823 521.92 370.255 518.56C376.783 515.104 384.127 513.376 392.287 513.376C400.447 513.376 407.743 515.104 414.175 518.56C420.607 521.92 425.647 526.624 429.295 532.672C432.943 538.72 434.767 545.584 434.767 553.264C434.767 560.944 432.943 567.808 429.295 573.856C425.647 579.904 420.607 584.656 414.175 588.112C407.743 591.472 400.447 593.152 392.287 593.152ZM392.287 574.72C398.047 574.72 402.751 572.8 406.399 568.96C410.143 565.024 412.015 559.792 412.015 553.264C412.015 546.736 410.143 541.552 406.399 537.712C402.751 533.776 398.047 531.808 392.287 531.808C386.527 531.808 381.775 533.776 378.031 537.712C374.287 541.552 372.415 546.736 372.415 553.264C372.415 559.792 374.287 565.024 378.031 568.96C381.775 572.8 386.527 574.72 392.287 574.72ZM449.782 485.152H472.246V592H449.782V485.152ZM540.183 513.376C549.783 513.376 557.511 516.256 563.367 522.016C569.319 527.776 572.295 536.32 572.295 547.648V592H549.831V551.104C549.831 544.96 548.487 540.4 545.799 537.424C543.111 534.352 539.223 532.816 534.135 532.816C528.471 532.816 523.959 534.592 520.599 538.144C517.239 541.6 515.559 546.784 515.559 553.696V592H493.095V514.528H514.551V523.6C517.527 520.336 521.223 517.84 525.639 516.112C530.055 514.288 534.903 513.376 540.183 513.376ZM669.389 553.552C669.389 553.84 669.245 555.856 668.957 559.6H610.349C611.405 564.4 613.901 568.192 617.837 570.976C621.773 573.76 626.669 575.152 632.525 575.152C636.557 575.152 640.109 574.576 643.181 573.424C646.349 572.176 649.277 570.256 651.965 567.664L663.917 580.624C656.621 588.976 645.965 593.152 631.949 593.152C623.213 593.152 615.485 591.472 608.765 588.112C602.045 584.656 596.861 579.904 593.213 573.856C589.565 567.808 587.741 560.944 587.741 553.264C587.741 545.68 589.517 538.864 593.069 532.816C596.717 526.672 601.661 521.92 607.901 518.56C614.237 515.104 621.293 513.376 629.069 513.376C636.653 513.376 643.517 515.008 649.661 518.272C655.805 521.536 660.605 526.24 664.061 532.384C667.613 538.432 669.389 545.488 669.389 553.552ZM629.213 530.368C624.125 530.368 619.853 531.808 616.397 534.688C612.941 537.568 610.829 541.504 610.061 546.496H648.221C647.453 541.6 645.341 537.712 641.885 534.832C638.429 531.856 634.205 530.368 629.213 530.368ZM759.834 514.528L724.842 596.752C721.29 605.68 716.874 611.968 711.594 615.616C706.41 619.264 700.122 621.088 692.73 621.088C688.698 621.088 684.714 620.464 680.778 619.216C676.842 617.968 673.626 616.24 671.13 614.032L679.338 598.048C681.066 599.584 683.034 600.784 685.242 601.648C687.546 602.512 689.802 602.944 692.01 602.944C695.082 602.944 697.578 602.176 699.498 600.64C701.418 599.2 703.146 596.752 704.682 593.296L704.97 592.576L671.418 514.528H694.602L716.346 567.088L738.234 514.528H759.834ZM860.182 593.728C849.718 593.728 840.262 591.472 831.814 586.96C823.462 582.448 816.886 576.256 812.086 568.384C807.382 560.416 805.03 551.488 805.03 541.6C805.03 531.712 807.382 522.832 812.086 514.96C816.886 506.992 823.462 500.752 831.814 496.24C840.262 491.728 849.718 489.472 860.182 489.472C870.646 489.472 880.054 491.728 888.406 496.24C896.758 500.752 903.334 506.992 908.134 514.96C912.934 522.832 915.334 531.712 915.334 541.6C915.334 551.488 912.934 560.416 908.134 568.384C903.334 576.256 896.758 582.448 888.406 586.96C880.054 591.472 870.646 593.728 860.182 593.728ZM860.182 573.856C866.134 573.856 871.51 572.512 876.31 569.824C881.11 567.04 884.854 563.2 887.542 558.304C890.326 553.408 891.718 547.84 891.718 541.6C891.718 535.36 890.326 529.792 887.542 524.896C884.854 520 881.11 516.208 876.31 513.52C871.51 510.736 866.134 509.344 860.182 509.344C854.23 509.344 848.854 510.736 844.054 513.52C839.254 516.208 835.462 520 832.678 524.896C829.99 529.792 828.646 535.36 828.646 541.6C828.646 547.84 829.99 553.408 832.678 558.304C835.462 563.2 839.254 567.04 844.054 569.824C848.854 572.512 854.23 573.856 860.182 573.856ZM931.282 485.152H953.746V592H931.282V485.152ZM974.595 514.528H997.059V592H974.595V514.528ZM985.827 503.728C981.699 503.728 978.339 502.528 975.747 500.128C973.155 497.728 971.859 494.752 971.859 491.2C971.859 487.648 973.155 484.672 975.747 482.272C978.339 479.872 981.699 478.672 985.827 478.672C989.955 478.672 993.315 479.824 995.907 482.128C998.499 484.432 999.795 487.312 999.795 490.768C999.795 494.512 998.499 497.632 995.907 500.128C993.315 502.528 989.955 503.728 985.827 503.728ZM1094.8 514.528L1062.12 592H1038.93L1006.39 514.528H1029.57L1051.03 567.232L1073.2 514.528H1094.8ZM1177.75 553.552C1177.75 553.84 1177.6 555.856 1177.32 559.6H1118.71C1119.76 564.4 1122.26 568.192 1126.2 570.976C1130.13 573.76 1135.03 575.152 1140.88 575.152C1144.92 575.152 1148.47 574.576 1151.54 573.424C1154.71 572.176 1157.64 570.256 1160.32 567.664L1172.28 580.624C1164.98 588.976 1154.32 593.152 1140.31 593.152C1131.57 593.152 1123.84 591.472 1117.12 588.112C1110.4 584.656 1105.22 579.904 1101.57 573.856C1097.92 567.808 1096.1 560.944 1096.1 553.264C1096.1 545.68 1097.88 538.864 1101.43 532.816C1105.08 526.672 1110.02 521.92 1116.26 518.56C1122.6 515.104 1129.65 513.376 1137.43 513.376C1145.01 513.376 1151.88 515.008 1158.02 518.272C1164.16 521.536 1168.96 526.24 1172.42 532.384C1175.97 538.432 1177.75 545.488 1177.75 553.552ZM1137.57 530.368C1132.48 530.368 1128.21 531.808 1124.76 534.688C1121.3 537.568 1119.19 541.504 1118.42 546.496H1156.58C1155.81 541.6 1153.7 537.712 1150.24 534.832C1146.79 531.856 1142.56 530.368 1137.57 530.368ZM1192.7 514.528H1215.17V592H1192.7V514.528ZM1203.94 503.728C1199.81 503.728 1196.45 502.528 1193.86 500.128C1191.26 497.728 1189.97 494.752 1189.97 491.2C1189.97 487.648 1191.26 484.672 1193.86 482.272C1196.45 479.872 1199.81 478.672 1203.94 478.672C1208.06 478.672 1211.42 479.824 1214.02 482.128C1216.61 484.432 1217.9 487.312 1217.9 490.768C1217.9 494.512 1216.61 497.632 1214.02 500.128C1211.42 502.528 1208.06 503.728 1203.94 503.728ZM1257.47 524.752C1260.16 521.008 1263.76 518.176 1268.27 516.256C1272.88 514.336 1278.16 513.376 1284.11 513.376V534.112C1281.62 533.92 1279.94 533.824 1279.07 533.824C1272.64 533.824 1267.6 535.648 1263.95 539.296C1260.3 542.848 1258.48 548.224 1258.48 555.424V592H1236.02V514.528H1257.47V524.752ZM1328.3 513.376C1340.3 513.376 1349.51 516.256 1355.94 522.016C1362.38 527.68 1365.59 536.272 1365.59 547.792V592H1344.57V582.352C1340.34 589.552 1332.47 593.152 1320.95 593.152C1315 593.152 1309.82 592.144 1305.4 590.128C1301.08 588.112 1297.77 585.328 1295.46 581.776C1293.16 578.224 1292.01 574.192 1292.01 569.68C1292.01 562.48 1294.7 556.816 1300.07 552.688C1305.54 548.56 1313.94 546.496 1325.27 546.496H1343.13C1343.13 541.6 1341.64 537.856 1338.66 535.264C1335.69 532.576 1331.22 531.232 1325.27 531.232C1321.14 531.232 1317.06 531.904 1313.03 533.248C1309.1 534.496 1305.74 536.224 1302.95 538.432L1294.89 522.736C1299.11 519.76 1304.15 517.456 1310.01 515.824C1315.96 514.192 1322.06 513.376 1328.3 513.376ZM1326.57 578.032C1330.41 578.032 1333.82 577.168 1336.79 575.44C1339.77 573.616 1341.88 570.976 1343.13 567.52V559.6H1327.72C1318.5 559.6 1313.9 562.624 1313.9 568.672C1313.9 571.552 1315 573.856 1317.21 575.584C1319.51 577.216 1322.63 578.032 1326.57 578.032Z" fill="black"/>
<path d="M1593.91 460.905C1597.08 460.528 1600.05 460.928 1602.81 462.104C1605.61 463.233 1607.91 465.044 1609.71 467.537C1611.5 469.988 1612.61 472.971 1613.03 476.488C1613.45 480.005 1613.07 483.186 1611.91 486.031C1610.73 488.834 1608.92 491.133 1606.47 492.927C1604.06 494.675 1601.26 495.737 1598.09 496.114C1593.72 496.632 1590.13 495.663 1587.3 493.205L1589.19 509.157L1579.28 510.334L1573.76 463.813L1583.23 462.689L1583.69 466.629C1585.8 463.372 1589.2 461.464 1593.91 460.905ZM1595.4 488.183C1597.95 487.881 1599.92 486.787 1601.33 484.902C1602.78 482.968 1603.33 480.561 1602.99 477.68C1602.64 474.799 1601.55 472.609 1599.69 471.11C1597.88 469.564 1595.7 468.942 1593.16 469.244C1590.61 469.546 1588.62 470.663 1587.17 472.597C1585.76 474.483 1585.23 476.866 1585.57 479.747C1585.92 482.628 1586.99 484.842 1588.81 486.388C1590.66 487.886 1592.86 488.485 1595.4 488.183ZM1627.64 461.992C1628.63 460.199 1630.07 458.761 1631.96 457.677C1633.9 456.588 1636.18 455.888 1638.8 455.576L1639.89 464.728C1638.78 464.774 1638.03 464.819 1637.65 464.865C1634.81 465.202 1632.68 466.271 1631.26 468.072C1629.84 469.831 1629.32 472.299 1629.69 475.477L1631.61 491.619L1621.69 492.796L1617.64 458.604L1627.11 457.48L1627.64 461.992ZM1644.76 455.385L1654.67 454.208L1658.73 488.4L1648.82 489.577L1644.76 455.385ZM1649.15 450.03C1647.33 450.246 1645.78 449.892 1644.51 448.969C1643.24 448.045 1642.51 446.8 1642.33 445.232C1642.14 443.665 1642.56 442.283 1643.58 441.088C1644.59 439.893 1646.01 439.188 1647.84 438.971C1649.66 438.755 1651.2 439.087 1652.47 439.968C1653.73 440.849 1654.45 442.053 1654.64 443.578C1654.83 445.23 1654.42 446.675 1653.41 447.913C1652.39 449.108 1650.97 449.813 1649.15 450.03ZM1684.6 450.14C1688.83 449.637 1692.39 450.503 1695.28 452.739C1698.21 454.969 1699.97 458.584 1700.56 463.583L1702.89 483.158L1692.97 484.335L1690.83 466.286C1690.51 463.574 1689.68 461.632 1688.33 460.459C1686.99 459.244 1685.19 458.77 1682.94 459.037C1680.44 459.333 1678.55 460.354 1677.25 462.097C1675.95 463.799 1675.48 466.175 1675.84 469.225L1677.85 486.13L1667.93 487.307L1663.87 453.115L1673.34 451.991L1673.82 455.995C1674.96 454.399 1676.46 453.103 1678.32 452.109C1680.17 451.073 1682.27 450.417 1684.6 450.14ZM1733.73 477.821C1732.84 478.657 1731.7 479.351 1730.3 479.903C1728.95 480.408 1727.48 480.754 1725.92 480.94C1721.85 481.423 1718.57 480.759 1716.08 478.95C1713.63 477.135 1712.16 474.215 1711.69 470.19L1710.02 456.145L1704.74 456.771L1703.84 449.145L1709.11 448.519L1708.13 440.193L1718.04 439.016L1719.03 447.342L1727.54 446.331L1728.45 453.957L1719.93 454.968L1721.59 468.886C1721.76 470.327 1722.25 471.407 1723.07 472.126C1723.92 472.799 1725.02 473.054 1726.38 472.893C1727.95 472.707 1729.23 472.125 1730.23 471.147L1733.73 477.821ZM1748.96 490.192C1745.96 486.638 1743.46 482.402 1741.46 477.483C1739.5 472.56 1738.18 467.196 1737.49 461.391C1736.8 455.587 1736.83 450.062 1737.58 444.817C1738.37 439.524 1739.81 434.82 1741.9 430.705L1751.37 429.581C1749.26 434.601 1747.88 439.62 1747.23 444.638C1746.57 449.614 1746.57 454.814 1747.21 460.237C1747.86 465.66 1749.08 470.735 1750.89 475.462C1752.69 480.146 1755.21 484.681 1758.43 489.067L1748.96 490.192ZM1764.29 438.295C1765.41 438.635 1766.32 439.236 1767.02 440.098C1767.72 440.96 1768.15 442.026 1768.3 443.297C1768.52 445.119 1768.12 446.67 1767.11 447.949C1766.1 449.187 1764.7 449.911 1762.93 450.122C1761.15 450.334 1759.59 449.938 1758.27 448.935C1756.99 447.926 1756.25 446.533 1756.04 444.753C1755.94 443.906 1755.94 443.046 1756.05 442.173C1756.16 441.301 1756.48 439.974 1757 438.194L1759.6 428.605L1765.89 427.858L1764.29 438.295ZM1779.29 436.514C1780.41 436.855 1781.31 437.456 1782.02 438.317C1782.72 439.179 1783.15 440.245 1783.3 441.517C1783.52 443.338 1783.12 444.889 1782.11 446.169C1781.1 447.406 1779.7 448.131 1777.92 448.342C1776.14 448.553 1774.59 448.157 1773.27 447.154C1771.99 446.146 1771.25 444.752 1771.03 442.973C1770.93 442.125 1770.94 441.265 1771.05 440.393C1771.16 439.52 1771.48 438.194 1772 436.414L1774.6 426.824L1780.89 426.077L1779.29 436.514ZM1830.08 422.945L1835.36 467.432L1825.07 468.655L1822.9 450.415L1802.69 452.814L1804.86 471.054L1794.56 472.276L1789.28 427.788L1799.57 426.566L1801.66 444.107L1821.87 441.708L1819.78 424.167L1830.08 422.945ZM1876.67 445.321C1876.68 445.448 1876.72 446.346 1876.79 448.013L1850.93 451.084C1851.64 453.147 1852.94 454.69 1854.83 455.712C1856.71 456.735 1858.94 457.092 1861.53 456.786C1863.31 456.574 1864.85 456.134 1866.14 455.465C1867.47 454.748 1868.67 453.747 1869.72 452.462L1875.67 457.556C1872.89 461.624 1868.4 464.026 1862.22 464.76C1858.36 465.218 1854.86 464.881 1851.72 463.75C1848.57 462.577 1846.04 460.751 1844.11 458.273C1842.18 455.795 1841.02 452.861 1840.62 449.472C1840.22 446.124 1840.65 443.023 1841.9 440.168C1843.18 437.265 1845.12 434.909 1847.7 433.099C1850.31 431.242 1853.33 430.109 1856.77 429.702C1860.11 429.305 1863.23 429.665 1866.11 430.784C1868.99 431.903 1871.36 433.727 1873.21 436.258C1875.09 438.741 1876.24 441.762 1876.67 445.321ZM1857.72 437.194C1855.47 437.46 1853.66 438.32 1852.29 439.772C1850.92 441.224 1850.19 443.072 1850.11 445.315L1866.95 443.316C1866.36 441.195 1865.22 439.59 1863.55 438.5C1861.87 437.368 1859.92 436.932 1857.72 437.194ZM1879.68 414.35L1889.6 413.173L1895.2 460.33L1885.28 461.506L1879.68 414.35ZM1898.8 412.08L1908.71 410.903L1914.31 458.06L1904.4 459.237L1898.8 412.08ZM1939.84 455.545C1936.24 455.973 1932.91 455.616 1929.86 454.475C1926.84 453.287 1924.36 451.454 1922.44 448.975C1920.51 446.497 1919.34 443.563 1918.94 440.174C1918.54 436.784 1918.98 433.659 1920.28 430.799C1921.57 427.939 1923.55 425.599 1926.21 423.779C1928.91 421.911 1932.06 420.764 1935.66 420.336C1939.27 419.909 1942.58 420.289 1945.6 421.478C1948.61 422.624 1951.08 424.436 1953.01 426.914C1954.93 429.392 1956.1 432.326 1956.5 435.715C1956.9 439.105 1956.46 442.23 1955.17 445.09C1953.87 447.95 1951.9 450.312 1949.24 452.174C1946.58 453.994 1943.44 455.118 1939.84 455.545ZM1938.88 447.41C1941.42 447.109 1943.4 446.015 1944.8 444.129C1946.25 442.196 1946.8 439.788 1946.46 436.907C1946.12 434.026 1945.02 431.836 1943.17 430.338C1941.35 428.792 1939.17 428.17 1936.63 428.471C1934.09 428.773 1932.09 429.891 1930.65 431.824C1929.2 433.715 1928.64 436.101 1928.98 438.982C1929.33 441.863 1930.43 444.074 1932.28 445.615C1934.14 447.114 1936.34 447.712 1938.88 447.41ZM1780.25 507.407L1770.98 553.623L1759.92 554.935L1746.56 525.973L1740.03 557.297L1729.03 558.602L1709.13 515.849L1719.81 514.582L1733.56 544.659L1740.34 512.145L1749.87 511.014L1763.78 541.329L1770.4 508.577L1780.25 507.407ZM1804.37 550.175C1800.76 550.602 1797.44 550.246 1794.38 549.105C1791.36 547.917 1788.89 546.083 1786.96 543.605C1785.03 541.127 1783.87 538.193 1783.46 534.804C1783.06 531.414 1783.51 528.289 1784.8 525.429C1786.09 522.568 1788.07 520.228 1790.73 518.408C1793.43 516.541 1796.59 515.394 1800.19 514.966C1803.79 514.539 1807.1 514.919 1810.12 516.107C1813.13 517.253 1815.6 519.065 1817.53 521.543C1819.46 524.022 1820.62 526.955 1821.02 530.345C1821.43 533.735 1820.98 536.859 1819.69 539.72C1818.4 542.58 1816.42 544.942 1813.76 546.804C1811.1 548.624 1807.97 549.747 1804.37 550.175ZM1803.4 542.04C1805.94 541.738 1807.92 540.644 1809.33 538.759C1810.77 536.825 1811.33 534.418 1810.98 531.537C1810.64 528.656 1809.54 526.466 1807.69 524.967C1805.87 523.421 1803.69 522.799 1801.15 523.101C1798.61 523.403 1796.62 524.52 1795.17 526.454C1793.72 528.345 1793.16 530.731 1793.51 533.612C1793.85 536.493 1794.95 538.704 1796.81 540.245C1798.66 541.743 1800.86 542.342 1803.4 542.04ZM1835.63 515.851C1836.62 514.057 1838.06 512.619 1839.95 511.535C1841.88 510.446 1844.16 509.746 1846.79 509.434L1847.88 518.586C1846.76 518.632 1846.02 518.678 1845.64 518.723C1842.8 519.06 1840.67 520.129 1839.25 521.93C1837.83 523.689 1837.3 526.157 1837.68 529.335L1839.6 545.477L1829.68 546.654L1825.62 512.462L1835.09 511.338L1835.63 515.851ZM1851.21 496.278L1861.12 495.101L1866.72 542.258L1856.8 543.435L1851.21 496.278ZM1905.15 489.874L1910.75 537.031L1901.28 538.155L1900.81 534.215C1898.7 537.473 1895.32 539.378 1890.66 539.931C1887.44 540.313 1884.43 539.94 1881.63 538.812C1878.88 537.678 1876.6 535.864 1874.8 533.371C1873 530.878 1871.89 527.873 1871.47 524.356C1871.06 520.84 1871.43 517.659 1872.6 514.813C1873.76 511.968 1875.55 509.672 1877.97 507.924C1880.42 506.172 1883.26 505.105 1886.48 504.722C1890.84 504.204 1894.42 505.177 1897.2 507.639L1895.23 491.051L1905.15 489.874ZM1891.41 531.593C1893.91 531.296 1895.89 530.202 1897.34 528.311C1898.78 526.378 1899.34 523.971 1898.99 521.09C1898.65 518.208 1897.55 516.019 1895.7 514.52C1893.84 512.979 1891.66 512.357 1889.16 512.654C1886.62 512.955 1884.63 514.073 1883.18 516.006C1881.73 517.897 1881.17 520.283 1881.52 523.164C1881.86 526.045 1882.96 528.256 1884.82 529.797C1886.67 531.296 1888.87 531.894 1891.41 531.593ZM1918.08 487.824C1919.86 487.613 1921.39 488.011 1922.67 489.019C1923.94 489.985 1924.69 491.379 1924.9 493.201C1925 494.048 1925 494.908 1924.89 495.781C1924.78 496.653 1924.48 497.977 1924.01 499.752L1921.41 509.342L1915.11 510.089L1916.65 499.723C1915.54 499.382 1914.63 498.781 1913.93 497.92C1913.22 497.058 1912.79 495.97 1912.64 494.657C1912.42 492.835 1912.82 491.305 1913.83 490.068C1914.88 488.783 1916.3 488.035 1918.08 487.824ZM1933.08 486.044C1934.86 485.832 1936.39 486.231 1937.67 487.239C1938.94 488.205 1939.69 489.599 1939.9 491.42C1940 492.268 1940 493.128 1939.89 494C1939.77 494.873 1939.48 496.197 1939 497.972L1936.4 507.561L1930.11 508.308L1931.65 497.942C1930.54 497.602 1929.63 497.001 1928.93 496.139C1928.22 495.278 1927.79 494.19 1927.64 492.876C1927.42 491.055 1927.82 489.525 1928.83 488.288C1929.88 487.003 1931.3 486.255 1933.08 486.044ZM1949.1 544.982C1951.21 539.962 1952.59 534.964 1953.25 529.988C1953.94 524.965 1953.97 519.741 1953.32 514.318C1952.68 508.895 1951.43 503.844 1949.59 499.164C1947.78 494.438 1945.26 489.882 1942.04 485.495L1951.51 484.371C1954.54 487.835 1957.04 492.05 1959 497.016C1961 501.934 1962.35 507.317 1963.05 513.164C1963.74 519.011 1963.71 524.557 1962.96 529.802C1962.2 535.005 1960.74 539.69 1958.57 543.858L1949.1 544.982Z" fill="#DBDBDB"/>
<path d="M2202.31 784.44V792.76L2171.84 804.344V796.344L2193.16 788.6L2171.84 780.792V772.856L2202.31 784.44ZM2238.46 781.112C2239.65 779.448 2241.25 778.189 2243.26 777.336C2245.3 776.483 2247.65 776.056 2250.3 776.056V785.272C2249.19 785.187 2248.44 785.144 2248.06 785.144C2245.2 785.144 2242.96 785.955 2241.34 787.576C2239.72 789.155 2238.9 791.544 2238.9 794.744V811H2228.92V776.568H2238.46V781.112ZM2272.3 811.512C2268.68 811.512 2265.41 810.765 2262.51 809.272C2259.65 807.736 2257.41 805.624 2255.79 802.936C2254.17 800.248 2253.36 797.197 2253.36 793.784C2253.36 790.371 2254.17 787.32 2255.79 784.632C2257.41 781.944 2259.65 779.853 2262.51 778.36C2265.41 776.824 2268.68 776.056 2272.3 776.056C2275.93 776.056 2279.17 776.824 2282.03 778.36C2284.89 779.853 2287.13 781.944 2288.75 784.632C2290.37 787.32 2291.18 790.371 2291.18 793.784C2291.18 797.197 2290.37 800.248 2288.75 802.936C2287.13 805.624 2284.89 807.736 2282.03 809.272C2279.17 810.765 2275.93 811.512 2272.3 811.512ZM2272.3 803.32C2274.86 803.32 2276.96 802.467 2278.58 800.76C2280.24 799.011 2281.07 796.685 2281.07 793.784C2281.07 790.883 2280.24 788.579 2278.58 786.872C2276.96 785.123 2274.86 784.248 2272.3 784.248C2269.74 784.248 2267.63 785.123 2265.97 786.872C2264.3 788.579 2263.47 790.883 2263.47 793.784C2263.47 796.685 2264.3 799.011 2265.97 800.76C2267.63 802.467 2269.74 803.32 2272.3 803.32ZM2314.24 811.512C2310.62 811.512 2307.35 810.765 2304.45 809.272C2301.59 807.736 2299.35 805.624 2297.73 802.936C2296.11 800.248 2295.3 797.197 2295.3 793.784C2295.3 790.371 2296.11 787.32 2297.73 784.632C2299.35 781.944 2301.59 779.853 2304.45 778.36C2307.35 776.824 2310.62 776.056 2314.24 776.056C2317.87 776.056 2321.11 776.824 2323.97 778.36C2326.83 779.853 2329.07 781.944 2330.69 784.632C2332.31 787.32 2333.12 790.371 2333.12 793.784C2333.12 797.197 2332.31 800.248 2330.69 802.936C2329.07 805.624 2326.83 807.736 2323.97 809.272C2321.11 810.765 2317.87 811.512 2314.24 811.512ZM2314.24 803.32C2316.8 803.32 2318.89 802.467 2320.51 800.76C2322.18 799.011 2323.01 796.685 2323.01 793.784C2323.01 790.883 2322.18 788.579 2320.51 786.872C2318.89 785.123 2316.8 784.248 2314.24 784.248C2311.68 784.248 2309.57 785.123 2307.91 786.872C2306.24 788.579 2305.41 790.883 2305.41 793.784C2305.41 796.685 2306.24 799.011 2307.91 800.76C2309.57 802.467 2311.68 803.32 2314.24 803.32ZM2362 809.336C2361.02 810.061 2359.81 810.616 2358.36 811C2356.95 811.341 2355.45 811.512 2353.88 811.512C2349.78 811.512 2346.6 810.467 2344.34 808.376C2342.12 806.285 2341.01 803.213 2341.01 799.16V785.016H2335.7V777.336H2341.01V768.952H2351V777.336H2359.57V785.016H2351V799.032C2351 800.483 2351.36 801.613 2352.08 802.424C2352.85 803.192 2353.92 803.576 2355.28 803.576C2356.86 803.576 2358.21 803.149 2359.32 802.296L2362 809.336Z" fill="#DBDBDB"/>
<path d="M2425.63 476.949L2407.25 469.673C2405.81 459.941 2402.21 450.642 2396.64 442.446L2409.82 436.737C2415.35 434.343 2417.88 427.943 2415.49 422.414C2413.1 416.884 2406.7 414.352 2401.17 416.746L2380.33 425.77C2376.09 422.804 2371.56 420.305 2366.58 418.335C2361.61 416.365 2356.59 415.086 2351.58 414.394L2342.45 393.512C2340.06 387.982 2333.66 385.45 2328.13 387.844C2322.6 390.238 2320.07 396.638 2322.46 402.168L2328.07 415.314C2318.5 417.52 2309.51 421.834 2301.8 427.949L2283.42 420.673C2277.83 418.462 2271.45 421.225 2269.24 426.812C2267.03 432.399 2269.79 438.779 2275.38 440.99L2286.45 445.372C2284.61 448.523 2282.88 451.715 2281.51 455.169L2277.49 465.327L2267.34 461.308C2261.75 459.097 2255.37 461.859 2253.16 467.446C2250.95 473.034 2253.71 479.414 2259.3 481.625L2269.46 485.644L2265.44 495.803C2264.07 499.257 2263.15 502.77 2262.33 506.323L2251.26 501.942C2245.67 499.731 2239.29 502.494 2237.08 508.081C2234.87 513.668 2237.63 520.048 2243.22 522.259L2261.6 529.535C2264.97 551.899 2279.72 571.949 2302.27 580.873C2324.82 589.797 2349.29 585.263 2367.05 571.259L2385.44 578.535C2391.02 580.746 2397.4 577.983 2399.61 572.396C2401.83 566.809 2399.06 560.429 2393.48 558.218L2382.4 553.836C2384.24 550.685 2385.97 547.493 2387.34 544.039L2391.36 533.881L2401.52 537.9C2407.1 540.111 2413.48 537.349 2415.69 531.762C2417.9 526.174 2415.14 519.794 2409.55 517.583L2399.4 513.564L2403.42 503.405C2404.78 499.951 2405.7 496.438 2406.52 492.885L2417.59 497.266C2423.18 499.477 2429.56 496.714 2431.77 491.127C2433.98 485.54 2431.22 479.16 2425.63 476.949ZM2332.52 534.1L2312.21 526.06C2306.62 523.849 2303.86 517.469 2306.07 511.882C2308.28 506.295 2314.66 503.532 2320.25 505.743L2340.56 513.782C2346.15 515.993 2348.91 522.373 2346.7 527.961C2344.49 533.548 2338.11 536.31 2332.52 534.1ZM2348.6 493.465L2328.29 485.426C2322.7 483.215 2319.94 476.835 2322.15 471.247C2324.36 465.66 2330.74 462.898 2336.33 465.108L2356.64 473.148C2362.23 475.359 2364.99 481.739 2362.78 487.326C2360.57 492.913 2354.19 495.676 2348.6 493.465Z" fill="#DBDBDB"/>
</svg>
