<svg width="1080" height="535" viewBox="0 0 1080 535" fill="none" xmlns="http://www.w3.org/2000/svg">
<rect width="1080" height="535" fill="white"/>
<path d="M378.48 261.528C380.08 261.528 381.531 261.901 382.832 262.648C384.155 263.373 385.189 264.408 385.936 265.752C386.683 267.075 387.056 268.621 387.056 270.392C387.056 272.163 386.683 273.72 385.936 275.064C385.189 276.387 384.155 277.421 382.832 278.168C381.531 278.893 380.08 279.256 378.48 279.256C376.283 279.256 374.555 278.563 373.296 277.176V285.208H368.304V261.784H373.072V263.768C374.309 262.275 376.112 261.528 378.48 261.528ZM377.616 275.16C378.896 275.16 379.941 274.733 380.752 273.88C381.584 273.005 382 271.843 382 270.392C382 268.941 381.584 267.789 380.752 266.936C379.941 266.061 378.896 265.624 377.616 265.624C376.336 265.624 375.28 266.061 374.448 266.936C373.637 267.789 373.232 268.941 373.232 270.392C373.232 271.843 373.637 273.005 374.448 273.88C375.28 274.733 376.336 275.16 377.616 275.16ZM395.166 264.056C395.763 263.224 396.563 262.595 397.566 262.168C398.59 261.741 399.763 261.528 401.086 261.528V266.136C400.531 266.093 400.158 266.072 399.966 266.072C398.536 266.072 397.416 266.477 396.606 267.288C395.795 268.077 395.39 269.272 395.39 270.872V279H390.398V261.784H395.166V264.056ZM404.054 261.784H409.046V279H404.054V261.784ZM406.55 259.384C405.633 259.384 404.886 259.117 404.31 258.584C403.734 258.051 403.446 257.389 403.446 256.6C403.446 255.811 403.734 255.149 404.31 254.616C404.886 254.083 405.633 253.816 406.55 253.816C407.467 253.816 408.214 254.072 408.79 254.584C409.366 255.096 409.654 255.736 409.654 256.504C409.654 257.336 409.366 258.029 408.79 258.584C408.214 259.117 407.467 259.384 406.55 259.384ZM424.143 261.528C426.276 261.528 427.994 262.168 429.295 263.448C430.618 264.728 431.279 266.627 431.279 269.144V279H426.287V269.912C426.287 268.547 425.988 267.533 425.391 266.872C424.794 266.189 423.93 265.848 422.799 265.848C421.54 265.848 420.538 266.243 419.791 267.032C419.044 267.8 418.671 268.952 418.671 270.488V279H413.679V261.784H418.447V263.8C419.108 263.075 419.93 262.52 420.911 262.136C421.892 261.731 422.97 261.528 424.143 261.528ZM446.908 278.168C446.417 278.531 445.809 278.808 445.084 279C444.38 279.171 443.633 279.256 442.844 279.256C440.796 279.256 439.207 278.733 438.076 277.688C436.967 276.643 436.412 275.107 436.412 273.08V266.008H433.756V262.168H436.412V257.976H441.404V262.168H445.692V266.008H441.404V273.016C441.404 273.741 441.585 274.307 441.948 274.712C442.332 275.096 442.865 275.288 443.548 275.288C444.337 275.288 445.009 275.075 445.564 274.648L446.908 278.168Z" fill="#1B75B6"/>
<path d="M453.742 285.208C452.462 283.267 451.47 281.016 450.766 278.456C450.084 275.896 449.742 273.155 449.742 270.232C449.742 267.309 450.084 264.568 450.766 262.008C451.47 259.427 452.462 257.176 453.742 255.256H458.51C457.166 257.624 456.185 260.035 455.566 262.488C454.948 264.92 454.638 267.501 454.638 270.232C454.638 272.963 454.948 275.555 455.566 278.008C456.185 280.44 457.166 282.84 458.51 285.208H453.742ZM701.883 285.208C703.227 282.84 704.208 280.44 704.827 278.008C705.467 275.555 705.786 272.963 705.786 270.232C705.786 267.501 705.467 264.92 704.827 262.488C704.208 260.035 703.227 257.624 701.883 255.256H706.651C707.952 257.155 708.944 259.395 709.627 261.976C710.331 264.536 710.683 267.288 710.683 270.232C710.683 273.176 710.341 275.928 709.659 278.488C708.976 281.027 707.973 283.267 706.651 285.208H701.883Z" fill="black"/>
<path d="M460.412 256.6H464.668L464.316 265.688H460.732L460.412 256.6ZM467.004 256.6H471.26L470.908 265.688H467.324L467.004 256.6ZM496.013 256.6V279H490.829V269.816H480.653V279H475.469V256.6H480.653V265.432H490.829V256.6H496.013ZM517.824 270.456C517.824 270.52 517.792 270.968 517.728 271.8H504.704C504.939 272.867 505.494 273.709 506.368 274.328C507.243 274.947 508.331 275.256 509.632 275.256C510.528 275.256 511.318 275.128 512 274.872C512.704 274.595 513.355 274.168 513.952 273.592L516.608 276.472C514.987 278.328 512.619 279.256 509.504 279.256C507.563 279.256 505.846 278.883 504.352 278.136C502.859 277.368 501.707 276.312 500.896 274.968C500.086 273.624 499.68 272.099 499.68 270.392C499.68 268.707 500.075 267.192 500.864 265.848C501.675 264.483 502.774 263.427 504.16 262.68C505.568 261.912 507.136 261.528 508.864 261.528C510.55 261.528 512.075 261.891 513.44 262.616C514.806 263.341 515.872 264.387 516.64 265.752C517.43 267.096 517.824 268.664 517.824 270.456ZM508.896 265.304C507.766 265.304 506.816 265.624 506.048 266.264C505.28 266.904 504.811 267.779 504.64 268.888H513.12C512.95 267.8 512.48 266.936 511.712 266.296C510.944 265.635 510.006 265.304 508.896 265.304ZM521.148 255.256H526.14V279H521.148V255.256ZM530.773 255.256H535.765V279H530.773V255.256ZM548.59 279.256C546.776 279.256 545.144 278.883 543.694 278.136C542.264 277.368 541.144 276.312 540.334 274.968C539.523 273.624 539.118 272.099 539.118 270.392C539.118 268.685 539.523 267.16 540.334 265.816C541.144 264.472 542.264 263.427 543.694 262.68C545.144 261.912 546.776 261.528 548.59 261.528C550.403 261.528 552.024 261.912 553.454 262.68C554.883 263.427 556.003 264.472 556.814 265.816C557.624 267.16 558.03 268.685 558.03 270.392C558.03 272.099 557.624 273.624 556.814 274.968C556.003 276.312 554.883 277.368 553.454 278.136C552.024 278.883 550.403 279.256 548.59 279.256ZM548.59 275.16C549.87 275.16 550.915 274.733 551.726 273.88C552.558 273.005 552.974 271.843 552.974 270.392C552.974 268.941 552.558 267.789 551.726 266.936C550.915 266.061 549.87 265.624 548.59 265.624C547.31 265.624 546.254 266.061 545.422 266.936C544.59 267.789 544.174 268.941 544.174 270.392C544.174 271.843 544.59 273.005 545.422 273.88C546.254 274.733 547.31 275.16 548.59 275.16ZM563.068 273.048C563.964 273.048 564.7 273.336 565.276 273.912C565.852 274.467 566.14 275.203 566.14 276.12C566.14 276.547 566.086 276.973 565.98 277.4C565.873 277.827 565.638 278.467 565.276 279.32L563.452 283.928H560.284L561.692 278.84C561.158 278.627 560.732 278.285 560.412 277.816C560.113 277.325 559.964 276.76 559.964 276.12C559.964 275.203 560.252 274.467 560.828 273.912C561.425 273.336 562.172 273.048 563.068 273.048ZM612.793 256.6L605.465 279H599.897L594.969 263.832L589.881 279H584.345L576.985 256.6H582.361L587.417 272.344L592.697 256.6H597.497L602.617 272.472L607.833 256.6H612.793ZM622.246 279.256C620.433 279.256 618.801 278.883 617.35 278.136C615.921 277.368 614.801 276.312 613.99 274.968C613.179 273.624 612.774 272.099 612.774 270.392C612.774 268.685 613.179 267.16 613.99 265.816C614.801 264.472 615.921 263.427 617.35 262.68C618.801 261.912 620.433 261.528 622.246 261.528C624.059 261.528 625.681 261.912 627.11 262.68C628.539 263.427 629.659 264.472 630.47 265.816C631.281 267.16 631.686 268.685 631.686 270.392C631.686 272.099 631.281 273.624 630.47 274.968C629.659 276.312 628.539 277.368 627.11 278.136C625.681 278.883 624.059 279.256 622.246 279.256ZM622.246 275.16C623.526 275.16 624.571 274.733 625.382 273.88C626.214 273.005 626.63 271.843 626.63 270.392C626.63 268.941 626.214 267.789 625.382 266.936C624.571 266.061 623.526 265.624 622.246 265.624C620.966 265.624 619.91 266.061 619.078 266.936C618.246 267.789 617.83 268.941 617.83 270.392C617.83 271.843 618.246 273.005 619.078 273.88C619.91 274.733 620.966 275.16 622.246 275.16ZM639.791 264.056C640.388 263.224 641.188 262.595 642.191 262.168C643.215 261.741 644.388 261.528 645.711 261.528V266.136C645.156 266.093 644.783 266.072 644.591 266.072C643.161 266.072 642.041 266.477 641.231 267.288C640.42 268.077 640.015 269.272 640.015 270.872V279H635.023V261.784H639.791V264.056ZM648.679 255.256H653.671V279H648.679V255.256ZM675.84 255.256V279H671.072V277.016C669.835 278.509 668.043 279.256 665.696 279.256C664.075 279.256 662.603 278.893 661.28 278.168C659.979 277.443 658.955 276.408 658.208 275.064C657.461 273.72 657.088 272.163 657.088 270.392C657.088 268.621 657.461 267.064 658.208 265.72C658.955 264.376 659.979 263.341 661.28 262.616C662.603 261.891 664.075 261.528 665.696 261.528C667.893 261.528 669.611 262.221 670.848 263.608V255.256H675.84ZM666.56 275.16C667.819 275.16 668.864 274.733 669.696 273.88C670.528 273.005 670.944 271.843 670.944 270.392C670.944 268.941 670.528 267.789 669.696 266.936C668.864 266.061 667.819 265.624 666.56 265.624C665.28 265.624 664.224 266.061 663.392 266.936C662.56 267.789 662.144 268.941 662.144 270.392C662.144 271.843 662.56 273.005 663.392 273.88C664.224 274.733 665.28 275.16 666.56 275.16ZM679.82 256.6H685.772L684.78 271.224H680.812L679.82 256.6ZM682.796 279.256C681.922 279.256 681.186 278.979 680.588 278.424C680.012 277.848 679.724 277.155 679.724 276.344C679.724 275.533 680.012 274.861 680.588 274.328C681.164 273.773 681.9 273.496 682.796 273.496C683.692 273.496 684.428 273.773 685.004 274.328C685.58 274.861 685.868 275.533 685.868 276.344C685.868 277.155 685.57 277.848 684.972 278.424C684.396 278.979 683.671 279.256 682.796 279.256ZM689.162 256.6H693.418L693.066 265.688H689.482L689.162 256.6ZM695.754 256.6H700.01L699.658 265.688H696.074L695.754 256.6Z" fill="#6C6C6C"/>
</svg>
